<?xml version="1.0" encoding="UTF-8" standalone="no"?>
<!DOCTYPE svg PUBLIC "-//W3C//DTD SVG 1.1//EN" "http://www.w3.org/Graphics/SVG/1.1/DTD/svg11.dtd">
<!-- Generated by Microsoft Visio, SVG Export all_icons.svg Page-1 -->
<svg xmlns="http://www.w3.org/2000/svg" xmlns:xlink="http://www.w3.org/1999/xlink" xmlns:ev="http://www.w3.org/2001/xml-events"
		width="80px" height="16px" viewBox="0 0 409.068 72.1161" xml:space="preserve" color-interpolation-filters="sRGB"
		class="st4">
	<style type="text/css">
	<![CDATA[
		.st1 {fill:#0f4f4f;stroke:none;stroke-linecap:round;stroke-linejoin:round;stroke-width:0.75}
		.st2 {fill:#0f4f4f;stroke:none;stroke-linecap:round;stroke-linejoin:round;stroke-width:0.75}
		.st3 {fill:#0f4f4f;stroke:none;stroke-linecap:butt;stroke-width:0.75}
		.st4 {fill:none;fill-rule:evenodd;font-size:12px;overflow:visible;stroke-linecap:square;stroke-miterlimit:3}
	]]>
	</style>

	<g>
		<title>Page-1</title>
		<g id="group7-1" transform="translate(82.3336,-57.4429)">
			<title>Sheet.7</title>
			<g id="shape7-2">
				<rect x="0" y="57.9429" width="70.8661" height="14.1732" rx="2.83465" ry="2.83465" class="st1"/>
			</g>
		</g>
		<g id="group8-4" transform="translate(82.3336,-29.0965)">
			<title>Sheet.8</title>
			<g id="shape8-5">
				<rect x="0" y="57.9429" width="70.8661" height="14.1732" rx="2.83465" ry="2.83465" class="st1"/>
			</g>
		</g>
		<g id="group9-7" transform="translate(82.3336,-0.75)">
			<title>Sheet.9</title>
			<g id="shape9-8">
				<rect x="0" y="57.9429" width="70.8661" height="14.1732" rx="2.83465" ry="2.83465" class="st1"/>
			</g>
		</g>
		<g id="shape14-10" transform="translate(252.412,-0.75)">
			<title>Sheet.14</title>
			<path d="M7.09 62.19 L7.09 11.17 A2.83465 2.83465 0 0 1 9.92 8.34 L60.94 8.34 A2.83465 2.83465 0 0 1 63.78 11.17 L63.78
						 62.19 A2.83465 2.83465 0 0 1 60.94 65.03 L9.92 65.03 A2.83465 2.83465 0 0 1 7.09 62.19 ZM2.83 72.12 L68.03
						 72.12 A2.83465 2.83465 -180 0 0 70.87 69.28 L70.87 4.08 A2.83465 2.83465 -180 0 0 68.03 1.25 L2.83 1.25
						 A2.83465 2.83465 -180 0 0 -0 4.08 L-0 69.28 A2.83465 2.83465 -180 0 0 2.83 72.12 Z" class="st2"/>
		</g>
		<g id="shape15-12" transform="translate(167.373,-0.75)">
			<title>Sheet.15</title>
			<rect x="0" y="57.9429" width="70.8661" height="14.1732" rx="2.83465" ry="2.83465" class="st1"/>
		</g>
		<g id="shape26-14" transform="translate(-6.6616,71.3661) rotate(-90)">
			<title>Forward</title>
			<path d="M0 25.86 L0 52.92 A2.83465 2.83465 -180 0 0 2.83 55.75 L29.38 55.75 A2.83465 2.83465 0 0 1 32.21 58.59 L32.21
						 66.01 A2.83465 2.83465 -180 0 0 36.88 68.17 L68.31 41.61 A2.83465 2.83465 -180 0 0 68.31 37.28 L36.88 10.62
						 A2.83465 2.83465 -180 0 0 32.21 12.78 L32.21 20.19 A2.83465 2.83465 0 0 1 29.38 23.02 L2.83 23.02 A2.83465
						 2.83465 -180 0 0 -0 25.86 Z" class="st3"/>
		</g>
		<g id="shape28-16" transform="translate(337.452,-5.32987)">
			<title>Refresh</title>
			<path d="M33.83 35.69 L25.2 35.69 A20.1065 20.4282 0 0 1 46.58 12.59 A17.9987 18.2867 -180 0 0 38.33 10.5 A27.0262 27.4586
						 -180 0 0 9.24 35.67 L0.59 35.67 L0 36.87 L16.11 54.74 L17.24 55.25 L18.36 54.74 L34.42 36.89 L33.83 35.69
						 ZM37.03 46.84 L45.67 46.84 A20.1177 20.4396 0 0 1 24.29 69.94 A18.0668 18.3558 -180 0 0 32.54 72.03 A27.0305
						 27.463 -180 0 0 61.63 46.85 L70.28 46.86 L70.87 45.65 L54.76 27.78 L53.63 27.28 L52.51 27.78 L36.44 45.62
						 L37.03 46.84 Z" class="st3"/>
		</g>
	</g>
</svg>
