<?xml version="1.0" encoding="UTF-8" standalone="no"?>
<!DOCTYPE svg PUBLIC "-//W3C//DTD SVG 1.1//EN" "http://www.w3.org/Graphics/SVG/1.1/DTD/svg11.dtd">
<!-- Generated by Microsoft Visio, SVG Export Logo.svg Page-1 -->
<svg xmlns="http://www.w3.org/2000/svg" xmlns:xlink="http://www.w3.org/1999/xlink" xmlns:ev="http://www.w3.org/2001/xml-events"
		width="6.0444in" height="6.0444in" viewBox="0 0 435.197 435.197" xml:space="preserve" color-interpolation-filters="sRGB"
		class="st2">
	<style type="text/css">
	<![CDATA[
		.st1 {stroke:#246767;stroke-linecap:round;stroke-linejoin:round;stroke-width:10}
		.st2 {fill:none;fill-rule:evenodd;font-size:12px;overflow:visible;stroke-linecap:square;stroke-miterlimit:3}
	]]>
	</style>

	<g>
		<title>Page-1</title>
		<g id="shape1-1" transform="translate(5,-5)">
			<title>Sheet.1</title>
			<path d="M49.37 113.65 A137.525 152.978 0 0 1 277.54 55.65 A94.008 104.571 0 0 1 409.89 181.94 A85.697 95.3266 0 0 1
						 343.18 331.54" class="st1"/>
			<path d="M277.54 55.65 A94.008 104.571 -180 0 0 232.19 113.65" class="st1"/>
			<path d="M409.89 181.94 A85.697 95.3266 -180 0 0 375.83 149.97" class="st1"/>
			<path d="M15.3 263.26 A94.008 104.571 -180 0 0 147.66 389.55 A94.008 104.571 -180 0 0 193.01 331.54" class="st1"/>
			<path d="M82.01 113.65 A85.697 95.3266 -180 0 0 15.3 263.26 A85.697 95.3266 -180 0 0 49.37 295.23" class="st1"/>
			<path d="M375.83 331.54 A137.525 152.978 0 0 1 147.66 389.55" class="st1"/>
		</g>
	</g>
</svg>
