<?xml version="1.0" encoding="UTF-8" standalone="no"?>
<!DOCTYPE svg PUBLIC "-//W3C//DTD SVG 1.1//EN" "http://www.w3.org/Graphics/SVG/1.1/DTD/svg11.dtd">
<!-- Generated by Microsoft Visio, SVG Export switch_100x100.svg Page-1 -->
<svg xmlns="http://www.w3.org/2000/svg" xmlns:xlink="http://www.w3.org/1999/xlink" xmlns:ev="http://www.w3.org/2001/xml-events"
		width="6.0444in" height="6.0444in" viewBox="0 0 435.197 435.197" xml:space="preserve" color-interpolation-filters="sRGB"
		class="st5">
	<style type="text/css">
	<![CDATA[
		.st1 {fill:#ffffff;stroke:#246767;stroke-linecap:round;stroke-linejoin:round;stroke-width:10}
		.st2 {fill:#699a9a;stroke:none;stroke-linecap:round;stroke-linejoin:round;stroke-width:0.75}
		.st3 {fill:#428080;stroke:none;stroke-linecap:round;stroke-linejoin:round;stroke-width:0.24}
		.st4 {fill:#246767;stroke:none;stroke-linecap:round;stroke-linejoin:round;stroke-width:0.24}
		.st5 {fill:none;fill-rule:evenodd;font-size:12px;overflow:visible;stroke-linecap:square;stroke-miterlimit:3}
	]]>
	</style>

	<g>
		<title>Page-1</title>
		<g id="shape14-1" transform="translate(5,-5)">
			<title>Sheet.14</title>
			<rect x="0" y="10" width="425.197" height="425.197" rx="22.6772" ry="22.6772" class="st1"/>
		</g>
		<g id="shape2-3" transform="translate(75.8661,-90.0394)">
			<title>Sheet.2</title>
			<path d="M0 435.2 L56.69 435.2 L170.08 265.12 L113.39 265.12 L0 435.2 Z" class="st2"/>
		</g>
		<g id="shape11-5" transform="translate(160.906,-90.0394)">
			<title>Sheet.11</title>
			<path d="M0 435.2 L56.69 435.2 L137.95 313.31 L184.25 313.31 L184.25 337.4 L236.69 289.21 L184.25 241.02 L184.25 265.12
						 L170.08 265.12 L120.47 265.12 L113.39 265.12 L0 435.2 Z" class="st3"/>
		</g>
		<g id="shape12-7" transform="translate(47.5197,-175.079)">
			<title>Sheet.12</title>
			<path d="M0 435.2 L56.69 435.2 L137.95 313.31 L184.25 313.31 L184.25 337.4 L236.69 289.21 L184.25 241.02 L184.25 265.12
						 L170.08 265.12 L120.47 265.12 L113.39 265.12 L0 435.2 Z" class="st4"/>
		</g>
	</g>
</svg>
