<?xml version="1.0" encoding="UTF-8" standalone="no"?>
<!DOCTYPE svg PUBLIC "-//W3C//DTD SVG 1.1//EN" "http://www.w3.org/Graphics/SVG/1.1/DTD/svg11.dtd">
<!-- Generated by Microsoft Visio, SVG Export cloud.svg Page-1 -->
<svg xmlns="http://www.w3.org/2000/svg" xmlns:xlink="http://www.w3.org/1999/xlink" xmlns:ev="http://www.w3.org/2001/xml-events"
		xmlns:v="http://schemas.microsoft.com/visio/2003/SVGExtensions/" width="6.067in" height="6.25028in"
		viewBox="0 0 436.824 450.02" xml:space="preserve" color-interpolation-filters="sRGB" class="st2">
	<v:documentProperties v:langID="1033" v:viewMarkup="false"/>

	<style type="text/css">
	<![CDATA[
		.st1 {stroke:#246767;stroke-linecap:round;stroke-linejoin:round;stroke-width:10}
		.st2 {fill:none;fill-rule:evenodd;font-size:12px;overflow:visible;stroke-linecap:square;stroke-miterlimit:3}
	]]>
	</style>

	<g v:mID="0" v:index="1" v:groupContext="foregroundPage">
		<title>Page-1</title>
		<v:pageProperties v:drawingScale="0.0393701" v:pageScale="0.0393701" v:drawingUnits="24" v:shadowOffsetX="8.50394"
				v:shadowOffsetY="-8.50394"/>
		<g id="shape125-1" v:mID="125" v:groupContext="shape" transform="translate(5,-5)">
			<title>Sheet.125</title>
			<path d="M140.59 28.63 A155.906 155.906 134.7 0 1 284.52 27.88 A87.874 87.874 134.01 0 1 408.19 150.27 A155.906 155.906
						 89.7 0 1 408.94 294.19 A87.874 87.874 129.23 0 1 298.3 425.23 A155.906 155.906 44.7 0 1 130.97 426.1"
					class="st1"/>
			<path d="M142.31 28.56 A87.874 87.874 -134.01 0 0 18.63 150.95 A155.906 155.906 -89.7 0 0 17.88 294.87 A87.874 87.874
						 -130.19 0 0 128.52 425.91" class="st1"/>
		</g>
	</g>
</svg>
