<?xml version="1.0" encoding="UTF-8" standalone="no"?>
<!DOCTYPE svg PUBLIC "-//W3C//DTD SVG 1.1//EN" "http://www.w3.org/Graphics/SVG/1.1/DTD/svg11.dtd">
<!-- Generated by Microsoft Visio, SVG Export host.svg Page-1 -->
<svg xmlns="http://www.w3.org/2000/svg" xmlns:xlink="http://www.w3.org/1999/xlink" xmlns:ev="http://www.w3.org/2001/xml-events"
		width="1.60605in" height="1.85258in" viewBox="0 0 115.636 133.386" xml:space="preserve" color-interpolation-filters="sRGB"
		class="st3">
	<style type="text/css">
	<![CDATA[
		.st1 {fill:#ffffff;stroke:#246767;stroke-linecap:round;stroke-linejoin:round;stroke-width:2.25}
		.st2 {fill:#246767}
		.st3 {fill:none;fill-rule:evenodd;font-size:12px;overflow:visible;stroke-linecap:square;stroke-miterlimit:3}
	]]>
	</style>

	<g>
		<title>Page-1</title>
		<g id="group5-1" transform="translate(1.125,-20)">
			<title>PC.40</title>
			<g id="shape6-2" transform="translate(0,-7.56188)">
				<title>Sheet.6</title>
				<path d="M76.81 105.54 L76.81 115.11 L82.6 115.11 L88.07 121.97 L113.39 121.97 L113.39 35.12 L76.81 35.12 L76.81
							 47.58 L92.5 47.58 L92.5 105.54 L76.81 105.54 ZM92.5 47.58 L5.65 47.58 L5.65 105.54 L92.5 105.54 L92.5
							 47.58 ZM97.17 133.39 L82.6 115.11 L14.58 115.11 L0 133.39 L97.17 133.39 ZM56.22 105.54 L40.95 105.54
							 L40.95 115.11 L56.22 115.11 L56.22 105.54 Z" class="st1"/>
			</g>
			<g id="shape7-4" transform="translate(11.2845,-40.6288)">
				<title>Sheet.7</title>
				<path d="M75.71 86.4 L0 86.4 L0 133.39 L75.71 133.39 L75.71 86.4 Z" class="st1"/>
			</g>
			<g id="shape8-6" transform="translate(13.2244,-11.3338)">
				<title>Sheet.8</title>
				<path d="M85.51 48.62 L93.34 48.62 L93.34 45.57 L85.51 45.57 L85.51 48.62 ZM85.51 54.06 L93.34 54.06 L93.34 51.01
							 L85.51 51.01 L85.51 54.06 ZM66.36 126.3 L62.04 126.3 L64.45 128.98 L69.11 128.98 L66.36 126.3 ZM61.47
							 121.53 L57.75 121.53 L60.35 124.42 L64.43 124.42 L61.47 121.53 ZM59.71 126.3 L55.39 126.3 L57.29 128.98
							 L61.95 128.98 L59.71 126.3 ZM55.75 121.53 L52.03 121.53 L54.07 124.42 L58.15 124.42 L55.75 121.53 ZM53.07
							 126.3 L48.75 126.3 L50.13 128.98 L54.79 128.98 L53.07 126.3 ZM50.04 121.53 L46.32 121.53 L47.81 124.48
							 L51.9 124.48 L50.04 121.53 ZM46.43 126.3 L42.11 126.3 L42.97 128.98 L47.63 128.98 L46.43 126.3 ZM44.4
							 121.73 L40.65 121.73 L41.53 124.48 L45.62 124.48 L44.4 121.73 ZM39.79 126.3 L35.47 126.3 L35.81 128.98
							 L40.46 128.98 L39.79 126.3 ZM38.69 121.96 L34.92 121.96 L35.26 124.65 L39.37 124.65 L38.69 121.96 ZM32.88
							 121.96 L29.11 121.96 L28.93 124.65 L33.04 124.65 L32.88 121.96 ZM33.14 126.3 L28.82 126.3 L28.65 128.98
							 L33.3 128.98 L33.14 126.3 ZM27.08 121.96 L23.3 121.96 L22.61 124.65 L26.72 124.65 L27.08 121.96 ZM26.5
							 126.3 L22.18 126.3 L21.48 128.98 L26.14 128.98 L26.5 126.3 ZM50.19 130.7 L19.72 130.7 L18.93 133.39
							 L51.51 133.39 L50.19 130.7 ZM21.27 121.96 L17.5 121.96 L16.28 124.65 L20.4 124.65 L21.27 121.96 ZM19.86
							 126.3 L15.54 126.3 L14.32 128.98 L18.98 128.98 L19.86 126.3 ZM15.47 121.96 L11.69 121.96 L9.96 124.65
							 L14.07 124.65 L15.47 121.96 ZM13.22 126.3 L8.9 126.3 L7.16 128.98 L11.82 128.98 L13.22 126.3 ZM9.66
							 121.96 L5.89 121.96 L3.64 124.65 L7.75 124.65 L9.66 121.96 ZM6.57 126.3 L2.25 126.3 L0 128.98 L4.66
							 128.98 L6.57 126.3 Z" class="st2"/>
			</g>
		</g>
	</g>
</svg>
