<?xml version="1.0" encoding="UTF-8" standalone="no"?>
<!DOCTYPE svg PUBLIC "-//W3C//DTD SVG 1.1//EN" "http://www.w3.org/Graphics/SVG/1.1/DTD/svg11.dtd">
<!-- Generated by Microsoft Visio, SVG Export switch.svg Page-1 -->
<svg xmlns="http://www.w3.org/2000/svg" xmlns:xlink="http://www.w3.org/1999/xlink" xmlns:ev="http://www.w3.org/2001/xml-events"
		width="5.94718in" height="5.94718in" viewBox="0 0 428.197 428.197" xml:space="preserve" color-interpolation-filters="sRGB"
		class="st5">
	<style type="text/css">
	<![CDATA[
		.st1 {fill:#ffffff;stroke:#246767;stroke-linecap:round;stroke-linejoin:round;stroke-width:3}
		.st2 {fill:#699a9a;stroke:none;stroke-linecap:round;stroke-linejoin:round;stroke-width:0.75}
		.st3 {fill:#428080;stroke:none;stroke-linecap:round;stroke-linejoin:round;stroke-width:0.24}
		.st4 {fill:#246767;stroke:none;stroke-linecap:round;stroke-linejoin:round;stroke-width:0.24}
		.st5 {fill:none;fill-rule:evenodd;font-size:12px;overflow:visible;stroke-linecap:square;stroke-miterlimit:3}
	]]>
	</style>

	<g>
		<title>Page-1</title>
		<g id="shape14-1" transform="translate(1.5,-1.5)">
			<title>Sheet.14</title>
			<rect x="0" y="3.00001" width="425.197" height="425.197" rx="22.6772" ry="22.6772" class="st1"/>
		</g>
		<g id="shape2-3" transform="translate(72.3661,-86.5394)">
			<title>Sheet.2</title>
			<path d="M0 428.2 L56.69 428.2 L170.08 258.12 L113.39 258.12 L0 428.2 Z" class="st2"/>
		</g>
		<g id="shape11-5" transform="translate(157.406,-86.5394)">
			<title>Sheet.11</title>
			<path d="M0 428.2 L56.69 428.2 L137.95 306.31 L184.25 306.31 L184.25 330.4 L236.69 282.21 L184.25 234.02 L184.25 258.12
						 L170.08 258.12 L120.47 258.12 L113.39 258.12 L0 428.2 Z" class="st3"/>
		</g>
		<g id="shape12-7" transform="translate(44.0197,-171.579)">
			<title>Sheet.12</title>
			<path d="M0 428.2 L56.69 428.2 L137.95 306.31 L184.25 306.31 L184.25 330.4 L236.69 282.21 L184.25 234.02 L184.25 258.12
						 L170.08 258.12 L120.47 258.12 L113.39 258.12 L0 428.2 Z" class="st4"/>
		</g>
	</g>
</svg>
